<svg xmlns="http://www.w3.org/2000/svg" fill="none" viewBox="0 0 500 500" id="Opencv--Streamline-Svg-Logos" height="500" width="500">
  <desc>
    Opencv Streamline Icon: https://streamlinehq.com
  </desc>
  <path fill="#ff0101" d="M201.590625 177.57916666666665c-36.20729166666667 -20.90416666666667 -53.85989583333333 -63.52135416666666 -43.0390625 -103.90520833333332C169.37239583333331 33.28958333333333 205.96874999999997 5.208333333333333 247.7770833333333 5.208333333333333c41.80885416666666 0 78.40520833333333 28.08125 89.22604166666666 68.465625 10.820833333333333 40.383854166666666 -6.831770833333334 83.00104166666667 -43.0390625 103.90520833333332l-27.812499999999996 -48.171875c14.404687499999998 -8.316666666666666 21.427083333333332 -25.270833333333332 17.122395833333332 -41.336979166666666 -4.3046875 -16.066145833333334 -18.8640625 -27.237499999999997 -35.496875 -27.237499999999997 -16.632812499999996 0 -31.191666666666666 11.171354166666665 -35.49635416666666 27.237499999999997 -4.305208333333333 16.066145833333334 2.7177083333333334 33.020312499999996 17.121875 41.336979166666666l-27.811979166666667 48.171875Z" stroke-width="5.2083"></path>
  <path fill="#0101ff" d="M399.4 199.94062499999998c36.20729166666667 20.904687499999998 53.85989583333333 63.521874999999994 43.0390625 103.90572916666666 -10.820833333333333 40.384375 -47.417187500000004 68.465625 -89.22604166666666 68.465625 -41.80885416666666 0 -78.4046875 -28.08125 -89.22552083333332 -68.465625 -10.821354166666666 -40.383854166666666 6.83125 -83.00104166666667 43.0390625 -103.90572916666666l27.811979166666667 48.17239583333333c-14.404166666666667 8.316666666666666 -21.427083333333332 25.270833333333332 -17.122395833333332 41.336979166666666 4.305208333333333 16.065625 18.8640625 27.237499999999997 35.496875 27.237499999999997 16.632812499999996 0 31.191666666666666 -11.171875 35.496875 -27.237499999999997 4.3046875 -16.066145833333334 -2.7182291666666667 -33.020312499999996 -17.122395833333332 -41.336979166666666l27.812499999999996 -48.17239583333333Z" stroke-width="5.2083"></path>
  <path fill="#01ff01" d="M236.70520833333333 279.9390625c0 41.80885416666666 -28.08125 78.40520833333333 -68.465625 89.22604166666666 -40.383854166666666 10.820833333333333 -83.00104166666667 -6.831770833333334 -103.90572916666666 -43.0390625 -20.90416666666667 -36.207812499999996 -14.883229166666666 -81.94166666666666 14.680208333333333 -111.50468749999999 29.563020833333333 -29.563541666666662 75.296875 -35.584375 111.50416666666666 -14.679687499999998l-27.811979166666667 48.171875c-14.404687499999998 -8.316145833333334 -32.598958333333336 -5.920833333333333 -44.359895833333326 5.840104166666666 -11.7609375 11.761458333333332 -14.156249999999998 29.955729166666664 -5.840104166666666 44.359895833333326 8.316145833333334 14.404166666666667 25.270833333333332 21.427083333333332 41.336979166666666 17.122395833333332 16.065625 -4.305208333333333 27.237499999999997 -18.8640625 27.237499999999997 -35.496875h55.62447916666666Z" stroke-width="5.2083"></path>
  <path fill="#050505" d="M78.33958333333332 394.46354166666663c7.817708333333332 -0.7026041666666666 15.722395833333332 -0.6958333333333333 23.501041666666666 0.4182291666666666 4.794270833333333 0.8484374999999998 9.880208333333332 2.0885416666666665 13.48125 5.583333333333333 3.7729166666666667 4.2109375 4.701041666666666 10.059375 5.530208333333333 15.450520833333332 1.359375 11.186979166666665 1.2 22.5328125 0 33.7265625 -0.8026041666666666 5.464062499999999 -1.5916666666666666 11.365625 -5.172395833333333 15.808854166666665 -3.9057291666666667 3.9656249999999997 -9.674999999999999 5.092708333333333 -14.966666666666667 5.9281250000000005 -7.811458333333333 0.975 -15.7359375 1.2005208333333333 -23.580729166666664 0.4177083333333333 -5.311458333333333 -0.54375 -10.855208333333334 -1.4786458333333332 -15.377604166666666 -4.508854166666667 -2.9244791666666665 -1.856770833333333 -4.495833333333333 -5.1328125 -5.563541666666667 -8.309375 -2.1421875 -6.617708333333333 -2.4140625 -13.646875 -2.7057291666666665 -20.543229166666666 -0.0328125 -9.111458333333333 0.13958333333333334 -18.315624999999997 1.9166666666666665 -27.280729166666664 0.9614583333333332 -4.184375 2.128645833333333 -8.786458333333334 5.6630208333333325 -11.578124999999998 4.980208333333334 -3.6140624999999997 11.313020833333333 -4.489583333333333 17.274479166666666 -5.113020833333334Zm1.2927083333333333 12.486979166666666c-3.2890624999999996 0.4973958333333333 -7.3869791666666655 0.7692708333333332 -9.369791666666666 3.8328124999999997 -1.7307291666666664 4.56875 -1.6708333333333332 9.555208333333333 -2.022395833333333 14.363020833333332 -0.16614583333333333 8.574479166666666 -0.5968749999999999 17.228125 0.7291666666666667 25.7359375 0.490625 2.8713541666666664 1.4989583333333332 6.292708333333333 4.688541666666667 7.134895833333332 6.916145833333333 2.115625 14.316666666666666 1.7572916666666665 21.445312499999996 1.3531249999999997 3.5541666666666667 -0.54375 8.269270833333332 -0.8489583333333334 9.999999999999998 -4.5692708333333325 1.9822916666666666 -5.6630208333333325 1.8432291666666665 -11.777083333333334 2.0885416666666665 -17.691666666666666 -0.0796875 -8.315624999999999 0.38489583333333327 -16.790625 -1.6046874999999998 -24.92708333333333 -0.47760416666666666 -2.8911458333333333 -3.474479166666667 -4.124479166666666 -6.014583333333333 -4.634895833333333 -6.551562499999999 -1.2864583333333333 -13.315624999999999 -1.1276041666666665 -19.940104166666664 -0.5968749999999999Zm69.85312499999999 13.428124999999998c4.7484375 -3.0171875 10.643229166666666 -3.5078124999999996 16.120833333333334 -3.010416666666666 5.1125 0.4375 10.789062499999998 2.175 13.527604166666666 6.882812499999999 3.269270833333333 5.908333333333333 3.4546875 12.891145833333331 3.6802083333333333 19.482812499999998 -0.14583333333333331 6.777083333333333 -0.271875 13.852604166666666 -3.0703125 20.152083333333334 -1.5979166666666667 3.826041666666667 -5.271875 6.332812499999999 -9.204166666666667 7.320833333333333 -6.020833333333332 1.4786458333333332 -12.639062499999998 1.6380208333333333 -18.441145833333334 -0.7625 -3.136458333333333 -1.2265624999999998 -5.305208333333333 -3.8927083333333328 -7.102083333333333 -6.624479166666666v30.974479166666665h-13.262500000000001c0.006770833333333333 -25.636458333333334 -0.013020833333333332 -51.27916666666666 0.006770833333333333 -76.91562499999999 4.290104166666667 -0.019791666666666666 8.580729166666666 -0.019791666666666666 12.864583333333334 0 -0.14583333333333331 2.6390625 -0.29166666666666663 5.271875 -0.36458333333333337 7.917708333333333 1.5911458333333333 -1.9432291666666666 3.0697916666666667 -4.078125 5.244791666666666 -5.417708333333333Zm4.317187499999999 6.922916666666666c-3.1562499999999996 0.2453125 -6.591666666666667 1.8104166666666666 -7.486458333333333 5.1125 -1.6911458333333331 5.822395833333332 -1.3927083333333334 11.989583333333332 -1.1473958333333332 17.983854166666667 0.41093749999999996 3.90625 0.8953125 8.939062499999999 5.053125 10.689583333333333 4.469270833333333 1.7307291666666664 9.628124999999999 1.6380208333333333 14.151041666666666 0.159375 3.9124999999999996 -1.3791666666666664 4.482291666666667 -5.98125 4.89375 -9.5359375 0.41093749999999996 -5.888541666666667 0.5567708333333333 -11.896354166666667 -0.5968749999999999 -17.711979166666666 -0.3911458333333333 -2.2546874999999997 -1.5515625 -4.582291666666666 -3.753125 -5.530208333333333 -3.475 -1.531770833333333 -7.400520833333333 -1.4520833333333332 -11.1140625 -1.1671874999999998Zm44.880208333333336 -6.8234375c6.518229166666667 -3.348958333333333 14.151041666666666 -3.4682291666666667 21.305729166666666 -3.130208333333333 5.955208333333333 0.4973958333333333 13.182812499999999 1.4921874999999998 16.465625 7.188541666666667 3.6999999999999997 6.8765624999999995 3.096875 14.966666666666667 3.6140624999999997 22.513020833333332h-36.2796875c0.4244791666666667 3.8921874999999995 -0.0796875 8.090104166666666 1.883333333333333 11.6578125 1.6776041666666666 2.818229166666667 5.238541666666666 3.394791666666667 8.249479166666667 3.5609374999999996 3.719791666666666 0.026041666666666664 7.725 0.33125 11.153645833333334 -1.3994791666666666 1.9625 -1.5385416666666665 1.9760416666666667 -4.270312499999999 2.228125 -6.5249999999999995 4.2437499999999995 -0.006770833333333333 8.488020833333332 -0.006770833333333333 12.731770833333334 0 -0.159375 4.4296875 -0.7291666666666667 9.389583333333333 -4.283854166666666 12.506249999999998 -5.338020833333332 4.788020833333333 -12.977083333333333 5.2854166666666655 -19.807291666666664 5.417708333333333 -6.027604166666666 -0.1786458333333333 -12.393749999999999 -0.48385416666666664 -17.791666666666664 -3.4546875 -4.369791666666666 -2.5796875 -5.7625 -7.878124999999999 -6.531770833333333 -12.546354166666665 -0.9744791666666666 -6.936458333333333 -1.2197916666666666 -14.005208333333332 -0.3911458333333333 -20.967708333333334 0.6765624999999998 -5.497395833333334 2.1552083333333334 -11.963020833333333 7.453645833333333 -14.820833333333333Zm7.7515624999999995 8.441666666666666c-2.771875 2.5260416666666665 -2.4999999999999996 6.7171875 -2.619270833333333 10.152083333333334 7.7984375 0.04010416666666666 15.596875 0.019791666666666666 23.4015625 0.006770833333333333 -0.013020833333333332 -3.090104166666667 0.28541666666666665 -6.458854166666666 -1.3859375 -9.2109375 -1.6380208333333333 -2.228125 -4.7078125 -2.373958333333333 -7.2281249999999995 -2.645833333333333 -4.064583333333333 -0.059375 -8.547395833333333 -0.5036458333333332 -12.168229166666666 1.6979166666666667Zm61.876041666666666 -8.475c4.5890625 -3.1828125 10.517187499999999 -3.627083333333333 15.915104166666666 -3.003645833333333 4.5953124999999995 0.48385416666666664 9.462499999999999 2.234375 12.174479166666666 6.199999999999999 2.4072916666666666 3.2890624999999996 3.077083333333333 7.480208333333333 3.110416666666666 11.465104166666665 -0.019791666666666666 12.161979166666667 0.006770833333333333 24.3171875 -0.006770833333333333 36.47864583333333 -4.204166666666667 0.006770833333333333 -8.401562499999999 0.006770833333333333 -12.592708333333334 0 -0.019791666666666666 -11.505208333333334 0.013541666666666665 -23.00364583333333 -0.019791666666666666 -34.50208333333333 -0.12604166666666666 -2.5135416666666663 -0.0265625 -5.417708333333333 -1.9166666666666665 -7.354166666666666 -2.015625 -2.181770833333333 -5.1786458333333325 -2.6062499999999997 -7.996875 -2.5864583333333333 -3.4088541666666665 -0.019791666666666666 -7.095833333333333 0.5640624999999999 -9.721354166666666 2.9182291666666664 -2.5666666666666664 2.188020833333333 -3.5411458333333328 5.715624999999999 -3.5546874999999996 8.978645833333333 -0.019791666666666666 10.8484375 0.006770833333333333 21.696875 -0.013020833333333332 32.53906249999999 -4.197395833333333 0.013541666666666665 -8.3953125 0.013541666666666665 -12.5859375 0.006770833333333333 -0.006770833333333333 -17.904166666666665 -0.006770833333333333 -35.80885416666666 0 -53.71302083333333 4.124479166666666 -0.013020833333333332 8.255729166666667 -0.006770833333333333 12.380208333333332 0 -0.019791666666666666 3.1432291666666665 -0.33125 6.266666666666667 -0.4244791666666667 9.409895833333332 1.3531249999999997 -2.5401041666666666 2.771875 -5.21875 5.252083333333333 -6.836979166666666Zm53.99791666666666 -23.527604166666663c6.949479166666666 -2.3338541666666663 14.356770833333332 -2.665625 21.624479166666667 -2.9244791666666665 7.0421875 0.03333333333333333 14.403125 0.09947916666666666 20.98125 2.9380208333333333 3.3421875 1.3921875 5.65625 4.442708333333333 6.783854166666666 7.811458333333333 1.8364583333333333 5.0328125 1.8895833333333334 10.483854166666667 1.9296874999999998 15.782291666666664 -4.847395833333333 0 -9.694791666666665 0.013020833333333332 -14.5359375 -0.006770833333333333 -0.0796875 -3.7265625 0.20572916666666666 -7.904166666666667 -2.1020833333333333 -11.073958333333332 -2.3338541666666663 -2.3874999999999997 -5.98125 -2.380729166666667 -9.078125 -2.7453125 -6.299479166666666 -0.11927083333333333 -12.8578125 -0.5239583333333333 -18.8921875 1.6510416666666665 -2.175 0.6895833333333332 -3.3026041666666663 2.8645833333333335 -3.7401041666666663 4.960416666666666 -1.2401041666666666 5.622916666666666 -1.246875 11.425520833333334 -1.2401041666666666 17.161458333333332 0.07291666666666666 7.6656249999999995 -0.04635416666666666 15.444270833333333 1.5916666666666666 22.983854166666664 0.4307291666666666 2.758333333333333 2.970833333333333 4.45625 5.5171874999999995 5.066145833333333 5.888541666666667 1.4656249999999997 12.035416666666666 1.253125 18.049999999999997 0.8953125 3.136458333333333 -0.4114583333333333 6.956249999999999 -0.6166666666666667 8.925520833333334 -3.4947916666666665 2.1020833333333333 -3.434895833333333 1.7510416666666666 -7.658854166666666 1.6380208333333333 -11.518229166666666 4.89375 -0.020312499999999997 9.781249999999998 -0.013541666666666665 14.674999999999999 0 -0.05989583333333333 6.093749999999999 -0.165625 12.386979166666665 -2.380729166666667 18.15625 -1.140625 3.0171875 -3.4947916666666665 5.5765625 -6.544791666666666 6.730729166666666 -5.988020833333333 2.400520833333333 -12.553125 2.5526041666666663 -18.905729166666667 2.9374999999999996 -7.3671875 0.12604166666666666 -14.827604166666667 -0.053125 -22.029166666666665 -1.7703124999999997 -4.223958333333333 -1.1010416666666667 -8.839062499999999 -3.0375 -10.7953125 -7.234895833333333 -2.4999999999999996 -5.550520833333334 -2.9578124999999997 -11.723958333333332 -3.6010416666666667 -17.698958333333334 -0.5369791666666667 -7.891145833333332 -0.8817708333333333 -15.7953125 -0.6895833333333332 -23.699999999999996 0.378125 -6.398958333333333 0.9614583333333332 -13.142708333333333 4.416666666666666 -18.719791666666666 1.8369791666666666 -3.103125 5.059375 -5.046354166666666 8.401562499999999 -6.186979166666666Zm54.51510416666667 -2.234375c5.053125 0.0062499999999999995 10.10625 -0.13958333333333334 15.152604166666666 0.07291666666666666 4.913541666666666 15.589583333333332 10.311458333333333 31.020833333333332 15.271874999999998 46.590624999999996 1.9296874999999998 5.98125 3.2953125 12.135416666666666 5.291666666666666 18.096875 2.234375 -6.432291666666667 3.666666666666666 -13.116666666666667 5.855208333333334 -19.562499999999996 4.847395833333333 -15.059375 9.827604166666665 -30.07239583333333 14.668229166666666 -45.131770833333334 4.986458333333333 -0.21197916666666666 9.986458333333333 -0.0265625 14.979687499999999 -0.09270833333333332v1.6510416666666665c-8.209375 25.019791666666663 -16.2265625 50.10520833333333 -24.269791666666663 75.18489583333333 -7.506770833333333 0.15208333333333332 -15.026562499999999 0.1723958333333333 -22.53333333333333 -0.013541666666666665 -7.996875 -25.64270833333333 -16.379166666666666 -51.16614583333333 -24.41614583333333 -76.79583333333333Z" stroke-width="5.2083"></path>
</svg>